<svg xmlns="http://www.w3.org/2000/svg" viewBox="0 0 671.27 271.35"><defs><style>.cls-1,.cls-2{fill:#1d1d1b;}.cls-2{opacity:0.95;}.cls-3{font-size:71.28px;font-family:SFProText-Heavy, SF Pro Text;font-weight:800;}.cls-4{letter-spacing:-0.01em;}.cls-5{letter-spacing:-0.02em;}.cls-6{font-family:SFProText-Medium, SF Pro Text;font-weight:500;}</style></defs><g id="katman_2" data-name="katman 2"><g id="katman_1-2" data-name="katman 1"><path class="cls-1" d="M266.4,80a80.05,80.05,0,0,1-9.54,38.15,10,10,0,0,1-17.54-9.63,59.92,59.92,0,1,0-105.65,0,10,10,0,0,1-8.83,14.79,9.81,9.81,0,0,1-8.71-5.16A80,80,0,1,1,266.4,80Z"/><path class="cls-2" d="M150.16,87.59c-.17-.17-.35-.33-.53-.48l-.06-.06A6.1,6.1,0,0,1,150.16,87.59Z"/><path class="cls-1" d="M161.82,117.13a37.66,37.66,0,0,1-37.07,35.17,37.22,37.22,0,0,1-20.73-6A37.62,37.62,0,0,1,88.59,126a.25.25,0,0,0,0-.07c-.1-.36-.21-.73-.33-1.09a37.5,37.5,0,0,0-73,7.57c-.12,1.15-.18,2.3-.19,3.42a7.5,7.5,0,0,1-15,.08,1.7,1.7,0,0,1,0-.22c0-.79,0-1.59.07-2.39a52.46,52.46,0,0,1,90-33.69,53.18,53.18,0,0,1,12.06,19.57c.13.45.28.89.44,1.34a.14.14,0,0,0,0,.07c.09.36.19.71.31,1.06a22.5,22.5,0,1,0,37.1-23l-.49-.46a7.49,7.49,0,0,1,10.07-11.08c.18.15.36.31.53.48A37.35,37.35,0,0,1,161.82,117.13Z"/><path class="cls-1" d="M373,135.88a7.5,7.5,0,0,1-15-.08c0-1.12-.07-2.27-.19-3.42a37.5,37.5,0,0,0-73.05-7.57c-.12.36-.23.73-.33,1.09a.25.25,0,0,0,0,.07A37.62,37.62,0,0,1,269,146.27a37.22,37.22,0,0,1-20.73,6,37.48,37.48,0,0,1-25.41-64.71,7.5,7.5,0,1,1,10.6,10.6l-.49.46a22.5,22.5,0,1,0,37.1,23c.12-.35.22-.7.31-1.06a.14.14,0,0,0,0-.07c.16-.45.31-.89.44-1.34a52.78,52.78,0,0,1,35.74-33.61,52.51,52.51,0,0,1,66.36,47.73c0,.8.07,1.6.07,2.39A1.7,1.7,0,0,1,373,135.88Z"/><path class="cls-1" d="M181.5,140.37c-.05.56-.1,1.11-.17,1.67a52.57,52.57,0,0,1-50.79,46.32h0l-1.34,0a52.13,52.13,0,0,1-24.74-6.21c-.8-.5-1.63-1-2.47-1.4,0,0,0,0,0,0a37.5,37.5,0,0,0-52.68,45.39h0l.27.77a7.26,7.26,0,0,1,.32,2.15,7.52,7.52,0,0,1-14.36,3.1c-.14-.37-.28-.75-.41-1.13a.14.14,0,0,1,0-.06,52.51,52.51,0,0,1,48.36-69.38h0l1.34,0a52.13,52.13,0,0,1,24.74,6.21c.8.5,1.63,1,2.47,1.4h0a37.45,37.45,0,0,0,54.47-29.53,7.53,7.53,0,0,1,15,.69Z"/><path class="cls-1" d="M181.5,140.37v.08a7.52,7.52,0,0,1-.17,1.59C181.4,141.48,181.45,140.93,181.5,140.37Z"/><path class="cls-1" d="M340.78,214.09A52.27,52.27,0,0,1,338,231a.14.14,0,0,1,0,.06c-.13.38-.27.76-.41,1.13a7.52,7.52,0,0,1-14.36-3.1,7.26,7.26,0,0,1,.32-2.15l.27-.77h0a37.25,37.25,0,0,0,2-12.23,37.49,37.49,0,0,0-54.67-33.16s0,0,0,0c-.84.43-1.67.9-2.47,1.4a52.13,52.13,0,0,1-24.74,6.21l-1.34,0h0A52.57,52.57,0,0,1,191.74,142c-.07-.56-.12-1.11-.17-1.67a7.53,7.53,0,0,1,15-.69,37.45,37.45,0,0,0,54.47,29.53h0c.84-.43,1.67-.9,2.47-1.4a52.13,52.13,0,0,1,24.74-6.21l1.34,0h0A52.56,52.56,0,0,1,340.78,214.09Z"/><path class="cls-1" d="M48.65,98.85a37.6,37.6,0,0,0-33.46,33.53c-.12,1.15-.18,2.3-.19,3.42a7.5,7.5,0,0,1-15,.08,1.7,1.7,0,0,1,0-.22c0-.79,0-1.59.07-2.39a52.46,52.46,0,0,1,90-33.69,53.18,53.18,0,0,1,12.06,19.57c.13.45.28.89.44,1.34a.14.14,0,0,0,0,.07c.09.36.19.71.31,1.06a22.5,22.5,0,1,0,37.1-23l-.49-.46a7.49,7.49,0,0,1,10.07-11.08l-.06-.06a6.1,6.1,0,0,1,.59.54A37.48,37.48,0,1,1,88.59,126a.25.25,0,0,0,0-.07c-.1-.36-.21-.73-.33-1.09A37.54,37.54,0,0,0,48.65,98.85Z"/><path class="cls-1" d="M181.5,140.37v.08a7.52,7.52,0,0,1-.17,1.59,52.57,52.57,0,0,1-50.79,46.32h0l-1.34,0a52.13,52.13,0,0,1-24.74-6.21c-.8-.5-1.63-1-2.47-1.4,0,0,0,0,0,0a37.5,37.5,0,0,0-52.68,45.39h0l.27.77a7.26,7.26,0,0,1,.32,2.15,7.52,7.52,0,0,1-14.36,3.1c-.14-.37-.28-.75-.41-1.13a.14.14,0,0,1,0-.06,52.51,52.51,0,0,1,48.36-69.38h0l1.34,0a52.13,52.13,0,0,1,24.74,6.21c.8.5,1.63,1,2.47,1.4h0a37.45,37.45,0,0,0,54.47-29.53,7.53,7.53,0,0,1,15,.69Z"/><path class="cls-1" d="M229,37.53a60.07,60.07,0,0,0-95.3,71,10,10,0,0,1-8.83,14.79,9.81,9.81,0,0,1-8.71-5.16,79.91,79.91,0,1,1,140.73,0,10,10,0,0,1-17.54-9.63A60.59,60.59,0,0,0,229,37.53Z"/><path class="cls-1" d="M340.78,214.09A52.27,52.27,0,0,1,338,231a.14.14,0,0,1,0,.06c-.13.38-.27.76-.41,1.13a7.52,7.52,0,0,1-14.36-3.1,7.26,7.26,0,0,1,.32-2.15l.27-.77h0a37.25,37.25,0,0,0,2-12.23,37.49,37.49,0,0,0-54.67-33.16s0,0,0,0c-.84.43-1.67.9-2.47,1.4a52.13,52.13,0,0,1-24.74,6.21l-1.34,0h0A52.57,52.57,0,0,1,191.74,142c-.07-.56-.12-1.11-.17-1.67a7.53,7.53,0,0,1,15-.69,37.45,37.45,0,0,0,54.47,29.53h0c.84-.43,1.67-.9,2.47-1.4a52.13,52.13,0,0,1,24.74-6.21l1.34,0h0A52.56,52.56,0,0,1,340.78,214.09Z"/><path class="cls-1" d="M373,135.88a7.5,7.5,0,0,1-15-.08c0-1.12-.07-2.27-.19-3.42a37.5,37.5,0,0,0-73.05-7.57c-.12.36-.23.73-.33,1.09a.25.25,0,0,0,0,.07A37.62,37.62,0,0,1,269,146.27a37.22,37.22,0,0,1-20.73,6,37.48,37.48,0,0,1-25.41-64.71,7.5,7.5,0,1,1,10.6,10.6l-.49.46a22.5,22.5,0,1,0,37.1,23c.12-.35.22-.7.31-1.06a.14.14,0,0,0,0-.07c.16-.45.31-.89.44-1.34a52.78,52.78,0,0,1,35.74-33.61,52.51,52.51,0,0,1,66.36,47.73c0,.8.07,1.6.07,2.39A1.7,1.7,0,0,1,373,135.88Z"/><text class="cls-3" transform="translate(409.3 152.3) scale(0.99 1)">O<tspan class="cls-4" x="56.59" y="0">C</tspan><tspan class="cls-5" x="109.7" y="0">T</tspan><tspan x="156.2" y="0">O</tspan><tspan class="cls-6"><tspan x="0" y="85.53">BRIDGE</tspan></tspan></text></g></g></svg>